<svg xmlns="http://www.w3.org/2000/svg" width="405" height="130" viewBox="0 0 405 130" version="1.1"><path d="M 13.223 7.057 C -6.862 17.286, 5.994 56.217, 40.945 91.006 C 63.822 113.776, 87.283 127.095, 105 127.369 C 118.551 127.578, 125.109 121.766, 125.836 108.903 C 126.432 98.353, 121.045 82, 116.974 82 C 114.448 82, 114.422 84.455, 116.882 90.713 C 123.521 107.603, 121.121 119.658, 110.703 121.742 C 88.127 126.257, 44.765 95.512, 21.544 58.526 C 11.055 41.818, 6.614 24.839, 10.683 17 C 14.671 9.318, 24.656 8.171, 40.019 13.630 C 46.994 16.108, 48.206 16.292, 49.033 14.997 C 51.388 11.309, 38.563 5.907, 26 5.294 C 18.728 4.939, 16.882 5.194, 13.223 7.057 M 54 22.028 C 45.826 23.728, 35.643 29.537, 29.855 35.803 C 22.852 43.385, 20.167 48.291, 21.887 50.364 C 23.655 52.494, 25.773 51.362, 27.944 47.127 C 32.741 37.770, 45.095 29.159, 56.755 27.044 C 71.603 24.352, 88.175 31.504, 96.833 44.340 C 99.865 48.834, 102.537 54.797, 101.834 55.499 C 101.595 55.739, 88.822 51.005, 73.449 44.980 C 48.153 35.065, 42 33.302, 42 35.971 C 42 36.431, 48.412 40.874, 56.250 45.844 C 64.088 50.815, 72.027 56.458, 73.893 58.386 L 77.286 61.890 74.893 62.437 C 73.577 62.738, 70.489 63.412, 68.031 63.935 L 63.561 64.886 57.788 59.379 C 54.613 56.351, 51.562 54.153, 51.008 54.495 C 50.453 54.838, 50 56.891, 50 59.059 C 50 61.227, 49.535 63, 48.967 63 C 48.398 63, 45.713 61.875, 43 60.500 C 38.079 58.006, 34.989 57.329, 35.013 58.750 C 35.020 59.163, 37.522 61.690, 40.575 64.367 C 43.909 67.292, 45.912 69.786, 45.593 70.617 C 45.295 71.395, 45.685 72, 46.484 72 C 47.266 72, 49.352 73.800, 51.120 76 C 52.888 78.200, 54.733 80, 55.219 80 C 55.706 80, 56.563 78.685, 57.123 77.077 L 58.142 74.154 72.821 74.139 L 87.500 74.124 90.750 77.258 C 93.843 80.241, 94 80.751, 94 87.812 L 94 95.231 89.786 99.083 C 87.469 101.201, 84.351 103.440, 82.858 104.059 C 80.061 105.218, 78.568 107.492, 79.556 109.090 C 82.300 113.531, 98.724 100.398, 104.377 89.242 C 105.777 86.480, 107.682 81.132, 108.611 77.360 C 109.539 73.587, 110.352 70.417, 110.416 70.316 C 110.481 70.215, 115.232 69.176, 120.973 68.005 C 136.410 64.860, 145.171 60.495, 143.708 56.681 C 143.115 55.137, 134.436 51.994, 130.812 52.011 C 129.540 52.017, 126.424 52.652, 123.887 53.422 C 121.350 54.192, 116.850 55.123, 113.887 55.491 L 108.500 56.160 106.746 51.184 C 104.340 44.360, 97.338 35.152, 91.036 30.526 C 81.158 23.275, 65.398 19.659, 54 22.028 M 392 59.943 L 392 81 396.449 81 L 400.898 81 400.699 60.250 L 400.500 39.500 396.250 39.193 L 392 38.885 392 59.943 M 158.447 44.250 C 158.713 45.487, 159.867 53.025, 161.010 61 C 164.200 83.258, 163.313 81.149, 169.340 80.799 L 174.500 80.500 176.637 70.197 C 177.812 64.530, 179.005 59.661, 179.289 59.378 C 179.795 58.871, 180.634 62.303, 183.048 74.750 L 184.260 81 189.630 81 C 192.584 81, 195 80.662, 195 80.250 C 195 79.837, 196.118 72.075, 197.485 63 C 200.799 40.997, 200.864 42, 196.129 42 L 192.258 42 190.966 56.500 C 190.255 64.475, 189.355 71, 188.966 71 C 188.576 71, 187.401 66.612, 186.354 61.250 L 184.451 51.500 179.449 51.205 L 174.447 50.911 172.597 60.205 C 171.579 65.317, 170.419 70.115, 170.019 70.866 C 169.619 71.617, 168.758 66.442, 168.106 59.366 C 166.436 41.227, 166.710 42, 161.962 42 C 158.337 42, 158.007 42.211, 158.447 44.250 M 236 45.500 L 236 49 241.500 49 L 247 49 247 65 L 247 81 251 81 L 255 81 255 65 L 255 49 260.500 49 L 266 49 266 45.500 L 266 42 251 42 L 236 42 236 45.500 M 213.096 49.265 C 208.573 51.589, 206.592 55.531, 206.167 63.050 C 205.478 75.249, 209.859 81.004, 219.827 80.994 C 222.947 80.991, 227.209 80.514, 229.298 79.934 C 232.570 79.026, 233.005 78.576, 232.436 76.690 C 231.414 73.302, 230.682 72.944, 226.966 74.010 C 220.909 75.747, 217.221 75.268, 215.413 72.508 C 212.396 67.903, 213.903 67, 224.609 67 L 234.280 67 233.735 61.750 C 233.025 54.897, 231.252 51.182, 227.855 49.425 C 224.478 47.679, 216.354 47.591, 213.096 49.265 M 270 64.500 L 270 81 274 81 L 278 81 278 68.975 C 278 56.988, 278.008 56.947, 280.565 55.975 C 281.976 55.439, 284.226 55, 285.565 55 C 287.299 55, 288 54.448, 288 53.082 C 288 52.027, 288.273 50.452, 288.607 49.582 C 289.516 47.214, 283.307 47.515, 279.166 50.040 L 275.832 52.073 275.299 50.036 C 274.951 48.706, 273.940 48, 272.383 48 L 270 48 270 64.500 M 296.901 49.167 C 293.795 49.996, 293.366 50.463, 293.770 52.578 C 294.416 55.954, 295.092 56.174, 300.971 54.913 C 308.174 53.368, 311 54.243, 311 58.019 C 311 60.969, 310.942 61, 305.450 61 C 302.398 61, 298.611 61.667, 297.034 62.483 C 291.586 65.300, 290.883 73.898, 295.667 79.185 C 297.949 81.706, 305.495 81.605, 309.774 78.996 C 313.781 76.553, 313.650 76.553, 314.290 79 C 314.643 80.351, 315.654 81, 317.406 81 L 320 81 319.994 70.250 C 319.985 51.930, 317.562 47.918, 306.615 48.103 C 303.252 48.160, 298.880 48.639, 296.901 49.167 M 325 48.563 C 325 48.937, 327.096 56.388, 329.659 65.121 L 334.317 81 339.078 81 L 343.839 81 345.367 76.250 C 347.963 68.174, 353 50.261, 353 49.101 C 353 48.488, 351.271 48, 349.100 48 L 345.201 48 343.616 55.250 C 342.744 59.237, 341.527 64.906, 340.912 67.846 C 340.296 70.787, 339.434 72.812, 338.995 72.346 C 338.557 71.881, 337.111 66.325, 335.783 60 L 333.368 48.500 329.184 48.193 C 326.883 48.023, 325 48.190, 325 48.563 M 363.420 49.885 C 359.327 52.382, 357.491 57.103, 357.543 65 C 357.617 76.300, 361.952 81, 372.301 81 C 381.775 81, 385.832 78.438, 383.123 74.165 C 382.456 73.112, 381.454 73.058, 378.388 73.909 C 369.957 76.250, 366 74.938, 366 69.800 L 366 67 375.500 67 L 385 67 384.996 61.750 C 384.992 55.622, 382.341 50.460, 378.434 48.975 C 374.230 47.377, 366.795 47.827, 363.420 49.885 M 216.245 55.250 C 214.568 57.346, 213.858 60.794, 214.962 61.477 C 215.536 61.831, 218.030 61.818, 220.503 61.447 C 224.256 60.885, 225 60.411, 225 58.586 C 225 57.384, 224.460 55.860, 223.800 55.200 C 222.228 53.628, 217.517 53.659, 216.245 55.250 M 367.625 55.517 C 366.731 56.411, 366 58.294, 366 59.700 C 366 62.206, 366.106 62.244, 371.232 61.564 C 374.109 61.182, 376.668 60.665, 376.918 60.415 C 377.168 60.165, 376.943 58.732, 376.418 57.230 C 375.258 53.910, 370.215 52.927, 367.625 55.517 M 302.250 66.662 C 300.728 67.276, 300.579 73.622, 302.065 74.540 C 303.878 75.661, 309.924 74.010, 310.937 72.119 C 311.465 71.131, 311.643 69.351, 311.332 68.162 C 310.878 66.425, 310.052 66.016, 307.133 66.079 C 305.135 66.122, 302.938 66.385, 302.250 66.662 M 18.697 78.346 C 17.915 80.385, 22.241 90.198, 26.450 95.932 C 34.182 106.465, 53 116.212, 53 109.683 C 53 108.925, 49.660 106.654, 45.578 104.636 C 35.203 99.508, 27.472 90.387, 23.639 78.750 C 22.961 76.690, 19.443 76.403, 18.697 78.346 M 196.345 105.542 C 195.434 107.917, 196.546 116.748, 197.972 118.467 C 199.887 120.774, 204.614 120.390, 206.443 117.777 C 208.545 114.777, 208.626 104, 206.548 104 C 205.465 104, 205.020 105.588, 204.798 110.240 C 204.551 115.419, 204.180 116.541, 202.620 116.838 C 199.986 117.340, 199.033 115.333, 199.015 109.250 C 199.001 104.212, 197.601 102.269, 196.345 105.542 M 220 105.500 C 220 106.500, 221 107, 223 107 C 224.650 107, 226 107.252, 226 107.560 C 226 107.868, 224.425 110.183, 222.500 112.704 C 217.611 119.106, 217.857 120, 224.500 120 C 228.722 120, 230 119.652, 230 118.500 C 230 117.446, 228.935 117, 226.415 117 L 222.830 117 226.415 112.116 C 231.430 105.284, 231.206 104, 225 104 C 221.222 104, 220 104.367, 220 105.500 M 242 112 L 242 120 245.929 120 C 250.633 120, 253.462 117.673, 252.492 114.601 C 252.127 113.445, 251.878 111.210, 251.939 109.632 C 252.095 105.602, 250.370 104, 245.878 104 L 242 104 242 112 M 265 112 L 265 120 269.500 120 C 272.833 120, 274 119.611, 274 118.500 C 274 117.500, 273 117, 271 117 C 268.667 117, 268 116.556, 268 115 C 268 113.533, 268.667 113, 270.500 113 C 271.875 113, 273 112.550, 273 112 C 273 111.450, 271.875 111, 270.500 111 C 268.667 111, 268 110.467, 268 109 C 268 107.444, 268.667 107, 271 107 C 273 107, 274 106.500, 274 105.500 C 274 104.389, 272.833 104, 269.500 104 L 265 104 265 112 M 286 111.917 C 286 118.292, 286.305 120, 287.443 120 C 288.414 120, 288.985 118.664, 289.193 115.904 L 289.500 111.808 292 115.877 C 293.375 118.115, 295.288 119.958, 296.250 119.973 C 298.550 120.008, 298.467 118.732, 296.026 116.523 C 292.771 113.578, 292.643 111.335, 295.513 107.572 C 298.065 104.226, 298.082 104.118, 296.023 104.273 C 294.773 104.367, 292.988 105.891, 291.698 107.967 L 289.500 111.500 289 108.079 C 288.725 106.198, 287.938 104.473, 287.250 104.246 C 286.319 103.939, 286 105.896, 286 111.917 M 309 112 C 309 118.444, 309.292 120, 310.500 120 C 311.708 120, 312 118.444, 312 112 C 312 105.556, 311.708 104, 310.500 104 C 309.292 104, 309 105.556, 309 112 M 325.750 105.056 C 322.761 106.838, 323.596 110.564, 327.500 112.867 C 331.938 115.486, 331.959 117, 327.559 117 C 323.355 117, 321.968 118.703, 325.459 119.579 C 333.389 121.569, 337.305 114.026, 329.928 110.970 C 326.006 109.346, 326.098 107, 330.083 107 C 332.102 107, 333.025 106.568, 332.756 105.750 C 332.225 104.133, 328.001 103.715, 325.750 105.056 M 343.667 104.667 C 342.307 106.026, 343.072 107, 345.500 107 C 347.910 107, 348 107.233, 348 113.500 C 348 118.611, 348.321 120, 349.500 120 C 350.679 120, 351 118.611, 351 113.500 C 351 107.667, 351.205 107, 353 107 C 354.111 107, 355 106.333, 355 105.500 C 355 104.354, 353.741 104, 349.667 104 C 346.733 104, 344.033 104.300, 343.667 104.667 M 367.526 105.250 C 367.300 105.938, 366.233 109.537, 365.155 113.250 C 363.474 119.036, 363.408 120, 364.691 120 C 365.514 120, 366.423 119.100, 366.710 118 C 367.043 116.726, 368.074 116, 369.549 116 C 370.987 116, 372.106 116.758, 372.500 118 C 372.849 119.100, 373.828 120, 374.674 120 C 375.521 120, 376.002 119.438, 375.743 118.750 C 375.483 118.063, 374.491 114.800, 373.536 111.500 C 371.932 105.952, 370.710 104.054, 368.719 104.015 C 368.289 104.007, 367.752 104.563, 367.526 105.250 M 387 111.927 C 387 116.642, 387.416 120, 388 120 C 388.550 120, 389.038 117.412, 389.084 114.250 L 389.167 108.500 391.834 114.250 C 393.870 118.641, 394.959 119.941, 396.441 119.750 C 398.168 119.528, 398.367 118.730, 398.246 112.500 C 398.171 108.650, 398.085 105.162, 398.055 104.750 C 398.025 104.338, 397.550 104, 397 104 C 396.450 104, 395.971 106.588, 395.937 109.750 L 395.873 115.500 393.170 110.010 C 391.683 106.991, 389.686 104.371, 388.733 104.187 C 387.204 103.893, 387 104.806, 387 111.927 M 245.688 106.646 C 244.216 108.117, 244.990 111.149, 246.750 110.810 C 247.713 110.624, 248.500 109.616, 248.500 108.570 C 248.500 106.580, 246.869 105.464, 245.688 106.646 M 368.652 110.165 C 367.742 113.566, 367.838 114, 369.500 114 C 371.130 114, 371.478 111.302, 370.123 109.165 C 369.492 108.169, 369.119 108.422, 368.652 110.165 M 245 115.500 C 245 118.381, 248.372 119.079, 249.396 116.410 C 250.215 114.275, 249.297 113, 246.941 113 C 245.537 113, 245 113.692, 245 115.500" stroke="none" fill="#f8f8f8" fill-rule="evenodd"/></svg>