<svg id="svg" version="1.1" xmlns="http://www.w3.org/2000/svg" xmlns:xlink="http://www.w3.org/1999/xlink" width="400" height="400" viewBox="0, 0, 400,400"><g id="svgg"><path id="path0" d="M88.400 70.244 C 30.996 77.360,41.375 153.837,110.733 234.800 C 173.131 307.639,257.362 351.335,294.800 330.287 C 303.418 325.442,310.514 316.594,312.835 307.800 C 317.199 291.268,315.015 273.677,305.644 249.876 C 305.401 249.258,304.751 247.768,304.201 246.565 C 303.650 245.361,303.200 244.308,303.200 244.224 C 303.200 243.531,300.242 237.996,299.520 237.338 C 296.270 234.376,291.461 235.155,289.628 238.941 C 288.488 241.298,288.587 242.496,290.227 246.200 C 314.910 301.921,300.505 331.494,254.000 320.575 C 249.364 319.486,239.323 316.374,237.905 315.586 C 237.523 315.374,237.033 315.200,236.815 315.200 C 236.598 315.200,235.241 314.660,233.800 314.000 C 232.359 313.340,231.083 312.800,230.965 312.800 C 230.467 312.800,218.919 307.200,214.400 304.767 C 182.550 287.622,147.596 258.430,119.365 225.400 C 112.646 217.539,110.880 215.332,104.802 207.200 C 103.405 205.330,101.783 203.170,101.198 202.400 C 91.420 189.522,77.929 165.713,72.525 151.800 C 71.756 149.820,70.967 147.840,70.771 147.400 C 69.367 144.248,66.405 133.954,65.246 128.200 C 63.247 118.271,63.466 107.046,65.794 100.200 C 72.820 79.532,100.227 77.185,137.800 94.035 C 144.621 97.094,146.966 96.927,149.500 93.204 C 151.943 89.615,150.064 85.650,144.800 83.285 C 143.370 82.643,141.390 81.747,140.400 81.294 C 123.508 73.571,100.685 68.721,88.400 70.244 M135.945 135.053 C 133.542 136.680,132.000 137.998,132.000 138.423 C 132.000 138.710,133.638 139.795,141.200 144.517 C 147.370 148.370,163.615 158.558,168.000 161.324 C 175.150 165.835,186.907 173.209,191.829 176.269 C 195.055 178.275,208.666 191.645,208.219 192.369 C 208.073 192.606,207.540 192.800,207.036 192.800 C 206.532 192.800,205.598 192.959,204.960 193.154 C 204.322 193.348,202.540 193.722,201.000 193.985 C 199.460 194.248,196.400 194.811,194.200 195.236 C 192.000 195.661,189.120 196.199,187.800 196.431 C 186.480 196.663,184.680 197.012,183.800 197.206 C 178.791 198.310,180.856 199.781,167.551 185.634 C 162.372 180.126,160.469 178.376,158.462 177.277 L 155.923 175.886 152.862 176.469 C 149.847 177.043,149.801 177.070,149.867 178.226 C 149.905 178.872,150.160 182.010,150.435 185.200 C 151.177 193.813,151.156 195.426,150.305 195.284 C 149.922 195.220,147.222 194.028,144.305 192.635 C 141.387 191.242,138.010 189.649,136.800 189.095 C 135.590 188.541,132.664 187.164,130.298 186.036 C 125.832 183.906,123.440 183.316,121.071 183.760 C 119.335 184.086,117.483 185.481,117.897 186.151 C 118.123 186.515,141.416 208.334,142.368 209.073 C 142.461 209.144,142.149 209.616,141.674 210.121 C 138.826 213.153,140.493 215.160,146.513 215.949 L 148.425 216.200 154.329 224.000 L 160.232 231.800 162.255 231.786 C 165.735 231.763,166.105 231.282,167.652 224.767 L 169.000 219.088 176.200 219.444 C 186.994 219.978,211.196 219.872,218.800 219.259 C 231.708 218.217,230.413 218.179,232.000 219.651 C 234.119 221.618,237.090 224.293,240.606 227.400 C 242.349 228.940,244.106 230.525,244.510 230.923 C 245.203 231.604,245.241 232.627,245.178 248.723 L 245.111 265.800 249.255 265.652 C 255.050 265.446,256.942 264.337,258.903 260.000 C 259.251 259.230,260.285 256.980,261.200 255.000 C 262.115 253.020,263.105 250.860,263.400 250.200 C 263.695 249.540,264.851 247.043,265.968 244.652 C 267.086 242.260,268.000 240.242,268.000 240.167 C 268.000 240.092,269.080 237.752,270.400 234.967 C 271.720 232.183,272.800 229.854,272.800 229.792 C 272.800 229.730,273.544 228.087,274.453 226.140 C 277.802 218.969,278.883 216.531,280.048 213.524 L 281.239 210.449 283.320 210.065 C 284.464 209.854,286.930 209.471,288.800 209.214 C 290.670 208.957,293.010 208.587,294.000 208.392 C 294.990 208.198,296.880 207.832,298.200 207.581 C 336.597 200.259,355.356 191.507,353.229 181.908 C 352.537 178.786,351.206 178.025,341.013 174.930 C 339.920 174.598,337.561 173.644,335.770 172.809 C 328.900 169.605,322.030 169.872,311.200 173.765 C 309.110 174.516,306.140 175.340,304.600 175.597 C 303.060 175.853,300.000 176.411,297.800 176.836 C 295.600 177.261,292.810 177.785,291.600 178.000 C 290.390 178.215,287.600 178.739,285.400 179.164 C 283.200 179.589,280.140 180.140,278.600 180.388 C 277.060 180.637,274.685 181.028,273.322 181.259 C 269.927 181.833,268.207 181.842,267.121 181.289 C 266.614 181.031,264.760 180.346,263.000 179.767 C 261.240 179.187,258.000 177.992,255.800 177.110 C 253.600 176.229,250.900 175.184,249.800 174.790 C 248.700 174.395,244.020 172.598,239.400 170.796 C 234.780 168.994,228.750 166.655,226.000 165.597 C 223.250 164.540,217.760 162.418,213.800 160.883 C 209.840 159.347,201.920 156.282,196.200 154.071 C 190.480 151.860,180.400 147.961,173.800 145.405 C 138.044 131.561,140.221 132.156,135.945 135.053 " stroke="none" fill="#fb7536" fill-rule="evenodd"></path><path id="path1" d="M169.800 106.062 C 134.936 110.459,106.704 129.703,91.008 159.767 C 87.219 167.024,88.794 172.000,94.879 172.000 C 98.092 172.000,99.308 171.016,101.804 166.400 C 105.888 158.844,107.476 156.419,112.016 150.800 C 154.556 98.152,237.674 112.037,261.615 175.791 C 263.096 179.736,263.138 179.795,264.858 180.398 C 265.816 180.734,266.858 181.172,267.173 181.373 C 268.749 182.375,276.268 181.017,276.094 179.762 C 275.650 176.562,272.091 167.079,269.062 161.027 C 259.168 141.256,243.181 125.428,223.205 115.625 C 215.746 111.965,210.653 110.175,201.500 107.995 C 192.798 105.923,178.037 105.023,169.800 106.062 M277.726 219.014 C 277.245 220.121,275.940 222.970,274.826 225.345 C 273.712 227.719,272.800 229.716,272.800 229.783 C 272.800 229.850,271.720 232.183,270.400 234.967 C 269.080 237.752,268.000 240.092,268.000 240.167 C 268.000 240.242,267.086 242.260,265.968 244.652 C 264.851 247.043,263.695 249.540,263.400 250.200 C 263.105 250.860,262.115 253.020,261.200 255.000 C 260.285 256.980,259.251 259.230,258.903 260.000 C 257.871 262.283,256.449 263.959,254.877 264.748 C 253.015 265.681,245.612 266.252,244.879 265.519 C 244.512 265.152,243.468 265.956,240.302 269.041 C 233.426 275.740,227.605 280.037,219.800 284.172 C 214.490 286.986,213.599 288.037,213.601 291.480 C 213.606 297.336,218.403 299.011,225.283 295.558 C 251.247 282.529,272.843 253.974,277.586 226.400 C 279.142 217.360,279.173 215.679,277.726 219.014 M85.959 225.708 C 83.102 227.617,82.577 230.556,84.175 235.701 C 93.663 266.243,117.780 291.235,147.375 301.197 C 154.329 303.537,158.394 301.724,158.399 296.280 C 158.401 292.455,157.201 291.336,150.400 288.823 C 124.714 279.333,105.341 259.300,96.743 233.339 C 93.981 225.001,90.600 222.608,85.959 225.708 " stroke="none" fill="#184786" fill-rule="evenodd"></path><path id="path2" d="M0.000 200.000 L 0.000 400.000 200.000 400.000 L 400.000 400.000 400.000 200.000 L 400.000 0.000 200.000 0.000 L 0.000 0.000 0.000 200.000 M105.000 70.010 C 114.341 71.308,129.784 75.724,137.709 79.364 C 138.419 79.690,140.852 80.770,143.116 81.763 C 151.978 85.651,154.094 91.720,147.994 95.757 C 145.290 97.546,143.202 97.278,136.800 94.322 C 112.466 83.084,88.846 80.535,76.442 87.808 C 48.809 104.009,70.354 168.672,123.618 229.400 C 192.047 307.417,284.797 347.214,299.657 304.934 C 301.938 298.443,302.195 286.137,300.223 277.800 C 300.119 277.360,299.578 275.075,299.020 272.721 C 297.356 265.697,293.725 255.349,290.387 248.116 C 287.021 240.822,288.300 235.804,293.734 234.989 C 299.025 234.196,300.430 235.836,305.899 249.200 C 324.150 293.798,315.596 328.160,284.600 334.752 C 283.500 334.986,281.755 335.362,280.723 335.589 C 277.740 336.242,264.736 336.098,260.165 335.360 C 252.561 334.133,250.722 333.729,244.600 331.946 C 232.410 328.395,216.361 321.362,203.593 313.976 C 200.847 312.387,198.237 310.888,197.794 310.644 C 157.418 288.407,101.515 232.204,76.005 188.200 C 75.622 187.540,74.677 185.920,73.903 184.600 C 69.190 176.554,63.659 165.407,60.803 158.200 C 60.106 156.440,59.295 154.460,59.001 153.800 C 56.442 148.050,52.826 135.400,51.627 128.000 C 50.533 121.253,50.400 119.745,50.407 114.167 C 50.444 82.615,71.739 65.390,105.000 70.010 M187.816 105.198 C 229.164 108.858,264.474 137.560,276.055 176.922 C 277.122 180.550,276.370 180.381,284.463 178.804 C 287.838 178.146,291.590 177.428,292.800 177.208 C 294.010 176.989,296.890 176.445,299.200 176.000 C 301.510 175.555,304.480 174.996,305.800 174.758 C 307.120 174.519,309.550 173.807,311.200 173.175 C 321.525 169.219,328.970 169.021,336.680 172.495 C 338.836 173.467,341.410 174.495,342.400 174.780 C 348.598 176.563,350.435 177.323,352.077 178.779 L 353.800 180.309 353.800 183.517 C 353.800 187.198,353.087 188.450,349.364 191.308 C 340.254 198.300,317.190 205.355,289.600 209.589 C 286.410 210.078,283.382 210.558,282.871 210.654 C 281.607 210.893,280.005 214.553,279.570 218.200 C 275.631 251.206,254.404 281.701,225.107 296.441 C 218.291 299.871,212.800 297.596,212.800 291.342 C 212.800 288.605,216.400 284.000,218.540 284.000 C 218.644 284.000,220.049 283.256,221.664 282.346 C 228.970 278.229,235.870 272.921,241.505 267.085 L 244.409 264.076 244.305 247.753 L 244.200 231.430 237.800 225.680 C 229.241 217.990,230.909 218.720,223.596 219.463 C 217.161 220.116,190.429 220.419,176.218 220.000 L 169.436 219.800 169.132 221.000 C 168.965 221.660,168.378 224.070,167.826 226.356 C 166.656 231.205,166.222 231.803,163.420 232.430 C 160.523 233.079,160.518 233.075,154.212 224.724 C 147.662 216.050,148.209 216.558,145.050 216.220 C 140.390 215.721,138.538 213.166,140.776 210.321 L 141.553 209.334 138.476 206.333 C 136.784 204.682,131.440 199.668,126.600 195.191 C 115.953 185.342,116.018 185.445,119.328 183.734 C 122.609 182.037,124.353 182.557,139.560 189.766 C 144.928 192.310,149.600 194.439,149.943 194.496 C 150.667 194.617,150.666 194.579,149.771 184.030 C 149.095 176.061,148.905 176.588,152.692 175.963 C 157.754 175.127,159.528 176.203,167.970 185.230 C 179.813 197.894,179.463 197.569,180.914 197.206 C 181.621 197.028,184.360 196.489,187.000 196.008 C 194.186 194.697,199.982 193.613,202.000 193.203 C 202.990 193.002,204.565 192.723,205.500 192.583 C 207.964 192.216,207.848 192.034,200.500 184.746 L 193.800 178.101 173.800 165.608 C 162.800 158.736,148.715 149.941,142.500 146.062 C 135.649 141.787,131.200 138.768,131.200 138.395 C 131.200 137.634,136.107 133.915,137.960 133.272 C 140.749 132.304,145.241 133.285,152.200 136.381 C 152.640 136.577,155.880 137.845,159.400 139.199 C 162.920 140.553,168.500 142.708,171.800 143.987 C 175.100 145.267,180.680 147.424,184.200 148.782 C 187.720 150.139,190.960 151.402,191.400 151.589 C 191.840 151.776,194.540 152.826,197.400 153.921 C 206.396 157.367,215.369 160.836,216.200 161.189 C 216.640 161.376,219.340 162.426,222.200 163.521 C 231.003 166.893,240.159 170.432,241.000 170.787 C 241.440 170.973,244.140 172.025,247.000 173.124 C 249.860 174.222,254.337 175.958,256.948 176.979 C 262.667 179.217,262.400 179.421,260.381 174.350 C 249.135 146.107,224.183 125.392,195.400 120.403 C 193.860 120.136,191.736 119.757,190.680 119.559 C 189.624 119.362,184.818 119.200,180.000 119.200 C 175.182 119.200,170.376 119.362,169.320 119.559 C 168.264 119.757,166.140 120.125,164.600 120.378 C 138.964 124.589,114.476 142.677,102.799 166.026 C 99.801 172.021,96.503 173.980,92.349 172.233 C 87.749 170.298,86.939 166.305,89.945 160.379 C 108.351 124.095,148.104 101.682,187.816 105.198 M92.378 224.789 C 94.576 225.910,95.375 227.119,96.829 231.521 C 105.533 257.870,124.734 278.693,148.200 287.232 C 156.378 290.208,157.545 290.907,158.649 293.487 C 160.520 297.859,157.176 303.200,152.567 303.200 C 151.201 303.200,145.365 301.446,142.600 300.205 C 141.940 299.908,140.590 299.345,139.600 298.953 C 118.491 290.596,96.051 267.857,87.147 245.800 C 84.273 238.680,82.400 232.816,82.400 230.938 C 82.400 225.963,87.962 222.536,92.378 224.789 " stroke="none" fill="#fbfbfb" fill-rule="evenodd"></path><path id="path3" d="M173.600 105.074 C 138.778 107.073,105.991 128.748,89.945 160.379 C 86.939 166.305,87.749 170.298,92.349 172.233 C 96.503 173.980,99.801 172.021,102.799 166.026 C 114.476 142.677,138.964 124.589,164.600 120.378 C 166.140 120.125,168.264 119.757,169.320 119.559 C 170.376 119.362,175.182 119.200,180.000 119.200 C 184.818 119.200,189.624 119.362,190.680 119.559 C 191.736 119.757,193.860 120.136,195.400 120.403 C 211.870 123.258,228.035 131.752,240.351 144.022 C 250.676 154.309,255.860 162.614,262.184 179.000 C 262.356 179.445,262.570 179.595,262.667 179.338 C 263.088 178.220,258.373 167.501,254.739 161.317 C 224.016 109.029,150.165 103.587,112.016 150.800 C 107.476 156.419,105.888 158.844,101.804 166.400 C 99.308 171.016,98.092 172.000,94.879 172.000 C 88.794 172.000,87.219 167.024,91.008 159.767 C 112.675 118.265,159.483 97.297,204.800 108.792 C 232.185 115.738,256.143 135.212,269.062 161.027 C 272.176 167.247,275.933 177.310,276.109 179.900 C 276.143 180.395,276.335 180.800,276.536 180.800 C 277.803 180.800,273.967 169.858,269.595 161.000 C 251.628 124.594,214.129 102.748,173.600 105.074 M278.798 217.900 C 278.796 218.725,278.607 220.480,278.376 221.800 C 278.145 223.120,277.803 225.100,277.614 226.200 C 272.872 253.943,251.337 282.484,225.283 295.558 C 218.403 299.011,213.606 297.336,213.601 291.480 C 213.599 288.037,214.490 286.986,219.800 284.172 C 224.370 281.751,231.042 277.333,234.400 274.506 C 238.244 271.269,244.816 264.750,244.595 264.392 C 244.490 264.221,243.098 265.434,241.502 267.088 C 235.871 272.921,228.969 278.229,221.664 282.346 C 220.049 283.256,218.644 284.000,218.540 284.000 C 216.398 284.000,212.800 288.605,212.800 291.346 C 212.800 297.596,218.293 299.870,225.107 296.441 C 248.058 284.894,266.625 263.221,275.003 238.200 C 277.965 229.352,280.459 216.400,279.200 216.400 C 278.980 216.400,278.799 217.075,278.798 217.900 M86.600 224.665 C 81.080 227.575,81.168 230.988,87.147 245.800 C 96.051 267.857,118.491 290.596,139.600 298.953 C 140.590 299.345,141.940 299.908,142.600 300.205 C 145.365 301.446,151.201 303.200,152.567 303.200 C 157.176 303.200,160.520 297.859,158.649 293.487 C 157.545 290.907,156.378 290.208,148.200 287.232 C 124.734 278.693,105.533 257.870,96.829 231.521 C 94.654 224.934,90.883 222.407,86.600 224.665 M92.388 225.394 C 94.102 226.280,94.868 227.678,96.743 233.339 C 105.341 259.300,124.714 279.333,150.400 288.823 C 157.201 291.336,158.401 292.455,158.399 296.280 C 158.394 301.724,154.329 303.537,147.375 301.197 C 117.780 291.235,93.663 266.243,84.175 235.701 C 81.740 227.863,86.241 222.215,92.388 225.394 " stroke="none" fill="#9eb1cc" fill-rule="evenodd"></path><path id="path4" d="M88.000 69.656 C 64.805 71.634,50.437 88.646,50.407 114.167 C 50.400 119.745,50.533 121.253,51.627 128.000 C 52.826 135.400,56.442 148.050,59.001 153.800 C 59.295 154.460,60.106 156.440,60.803 158.200 C 63.659 165.407,69.190 176.554,73.903 184.600 C 74.677 185.920,75.622 187.540,76.005 188.200 C 98.176 226.445,140.201 271.226,180.000 299.016 C 185.559 302.897,195.371 309.309,197.794 310.644 C 198.237 310.888,200.847 312.387,203.593 313.976 C 216.361 321.362,232.410 328.395,244.600 331.946 C 250.722 333.729,252.561 334.133,260.165 335.360 C 264.736 336.098,277.740 336.242,280.723 335.589 C 281.755 335.362,283.500 334.986,284.600 334.752 C 315.596 328.160,324.150 293.798,305.899 249.200 C 300.430 235.836,299.025 234.196,293.734 234.989 C 288.300 235.804,287.021 240.822,290.387 248.116 C 293.725 255.349,297.356 265.697,299.020 272.721 C 299.578 275.075,300.119 277.360,300.223 277.800 C 302.195 286.137,301.938 298.443,299.657 304.934 C 284.797 347.214,192.047 307.417,123.618 229.400 C 67.079 164.938,47.054 97.347,81.042 85.684 C 94.171 81.179,115.495 84.482,136.800 94.322 C 143.202 97.278,145.290 97.546,147.994 95.757 C 154.094 91.720,151.978 85.651,143.116 81.763 C 140.852 80.770,138.419 79.690,137.709 79.364 C 131.617 76.566,118.964 72.666,110.000 70.824 C 104.113 69.615,94.481 69.103,88.000 69.656 M106.200 70.965 C 117.298 72.758,130.358 76.703,140.400 81.294 C 141.390 81.747,143.370 82.643,144.800 83.285 C 150.064 85.650,151.943 89.615,149.500 93.204 C 146.966 96.927,144.621 97.094,137.800 94.035 C 100.227 77.185,72.820 79.532,65.794 100.200 C 63.975 105.549,63.312 116.669,64.406 123.474 C 65.635 131.128,68.768 142.904,70.771 147.400 C 70.967 147.840,71.756 149.820,72.525 151.800 C 77.929 165.713,91.420 189.522,101.198 202.400 C 101.783 203.170,103.405 205.330,104.802 207.200 C 134.735 247.246,176.325 284.271,214.400 304.767 C 218.919 307.200,230.467 312.800,230.965 312.800 C 231.083 312.800,232.359 313.340,233.800 314.000 C 235.241 314.660,236.598 315.200,236.815 315.200 C 237.033 315.200,237.523 315.374,237.905 315.586 C 239.323 316.374,249.364 319.486,254.000 320.575 C 265.679 323.317,277.083 323.364,284.958 320.703 C 305.853 313.643,307.815 285.903,290.227 246.200 C 288.587 242.496,288.488 241.298,289.628 238.941 C 291.461 235.155,296.270 234.376,299.520 237.338 C 300.242 237.996,303.200 243.531,303.200 244.224 C 303.200 244.308,303.650 245.361,304.201 246.565 C 307.337 253.421,311.176 265.106,312.820 272.800 C 315.821 286.847,315.826 296.472,312.835 307.800 C 310.514 316.594,303.418 325.442,294.800 330.287 C 257.362 351.335,173.131 307.639,110.733 234.800 C 41.375 153.837,30.996 77.360,88.400 70.244 C 91.047 69.916,102.604 70.384,106.200 70.965 M137.773 133.330 C 135.920 134.040,131.200 137.667,131.200 138.382 C 131.200 138.772,135.490 141.688,142.500 146.062 C 148.715 149.941,162.800 158.736,173.800 165.608 L 193.800 178.101 200.500 184.746 C 207.851 192.037,207.961 192.210,205.500 192.597 C 203.664 192.885,196.522 194.205,193.600 194.795 C 192.610 194.995,189.640 195.547,187.000 196.021 C 184.360 196.495,181.621 197.028,180.914 197.206 C 179.463 197.569,179.813 197.894,167.970 185.230 C 159.528 176.203,157.754 175.127,152.692 175.963 C 148.905 176.588,149.095 176.061,149.771 184.030 C 150.666 194.579,150.667 194.617,149.943 194.496 C 149.600 194.439,144.928 192.310,139.560 189.766 C 124.353 182.557,122.609 182.037,119.328 183.734 C 116.018 185.445,115.953 185.342,126.600 195.191 C 131.440 199.668,136.784 204.682,138.476 206.333 L 141.553 209.334 140.776 210.321 C 138.538 213.166,140.390 215.721,145.050 216.220 C 148.209 216.558,147.662 216.050,154.212 224.724 C 160.518 233.075,160.523 233.079,163.420 232.430 C 166.222 231.803,166.656 231.205,167.826 226.356 C 168.378 224.070,168.965 221.660,169.132 221.000 L 169.436 219.800 176.218 220.000 C 190.429 220.419,217.161 220.116,223.596 219.463 C 230.909 218.720,229.241 217.990,237.800 225.680 L 244.200 231.430 244.400 248.015 C 244.510 257.137,244.735 264.270,244.900 263.867 C 245.625 262.098,245.244 231.643,244.488 230.900 C 244.096 230.515,242.349 228.940,240.606 227.400 C 237.090 224.293,234.119 221.618,232.000 219.651 C 230.413 218.179,231.708 218.217,218.800 219.259 C 211.196 219.872,186.994 219.978,176.200 219.444 L 169.000 219.088 167.652 224.767 C 166.105 231.282,165.735 231.763,162.255 231.786 L 160.232 231.800 154.329 224.000 L 148.425 216.200 146.513 215.949 C 140.493 215.160,138.826 213.153,141.674 210.121 C 142.149 209.616,142.461 209.144,142.368 209.073 C 141.416 208.334,118.123 186.515,117.897 186.151 C 117.483 185.481,119.335 184.086,121.071 183.760 C 123.440 183.316,125.832 183.906,130.298 186.036 C 132.664 187.164,135.590 188.541,136.800 189.095 C 138.010 189.649,141.387 191.242,144.305 192.635 C 147.222 194.028,149.922 195.220,150.305 195.284 C 151.156 195.426,151.177 193.813,150.435 185.200 C 150.160 182.010,149.905 178.872,149.867 178.226 C 149.801 177.070,149.847 177.043,152.862 176.469 L 155.923 175.886 158.462 177.277 C 160.469 178.376,162.372 180.126,167.551 185.634 C 180.856 199.781,178.791 198.310,183.800 197.206 C 184.680 197.012,186.480 196.663,187.800 196.431 C 189.120 196.199,192.000 195.661,194.200 195.236 C 196.400 194.811,199.460 194.248,201.000 193.985 C 202.540 193.722,204.322 193.348,204.960 193.154 C 205.598 192.959,206.532 192.800,207.036 192.800 C 207.540 192.800,208.073 192.606,208.219 192.369 C 208.666 191.645,195.055 178.275,191.829 176.269 C 186.907 173.209,175.150 165.835,168.000 161.324 C 163.615 158.558,147.370 148.370,141.200 144.517 C 130.839 138.047,131.485 138.607,132.900 137.323 C 139.268 131.544,136.680 131.032,173.800 145.405 C 180.400 147.961,190.480 151.860,196.200 154.071 C 201.920 156.282,209.840 159.347,213.800 160.883 C 217.760 162.418,223.250 164.540,226.000 165.597 C 228.750 166.655,234.780 168.994,239.400 170.796 C 244.020 172.598,248.700 174.395,249.800 174.790 C 250.900 175.184,253.690 176.269,256.000 177.200 C 260.740 179.112,262.730 179.764,262.173 179.225 C 261.815 178.879,258.291 177.462,247.000 173.124 C 244.140 172.025,241.440 170.973,241.000 170.787 C 240.159 170.432,231.003 166.893,222.200 163.521 C 219.340 162.426,216.640 161.376,216.200 161.189 C 215.369 160.836,206.396 157.367,197.400 153.921 C 194.540 152.826,191.840 151.776,191.400 151.589 C 190.960 151.402,187.720 150.139,184.200 148.782 C 180.680 147.424,175.100 145.267,171.800 143.987 C 168.500 142.708,162.920 140.553,159.400 139.199 C 155.880 137.845,152.640 136.577,152.200 136.381 C 145.145 133.242,140.545 132.269,137.773 133.330 M320.732 170.409 C 318.123 170.850,314.719 171.839,311.200 173.181 C 309.550 173.810,307.120 174.519,305.800 174.758 C 304.480 174.996,301.510 175.555,299.200 176.000 C 296.890 176.445,294.010 176.989,292.800 177.208 C 291.590 177.428,287.838 178.146,284.463 178.804 C 281.088 179.462,277.983 180.000,277.563 180.000 C 277.143 180.000,276.800 180.200,276.800 180.443 C 276.800 180.728,277.194 180.787,277.900 180.608 C 278.505 180.455,279.900 180.180,281.000 179.996 C 282.100 179.812,284.440 179.377,286.200 179.029 C 287.960 178.681,290.390 178.219,291.600 178.003 C 292.810 177.786,295.600 177.261,297.800 176.836 C 300.000 176.411,303.060 175.853,304.600 175.597 C 306.140 175.340,309.110 174.516,311.200 173.765 C 322.030 169.872,328.900 169.605,335.770 172.809 C 337.561 173.644,339.920 174.598,341.013 174.930 C 351.206 178.025,352.537 178.786,353.229 181.908 C 355.199 190.800,338.764 199.190,306.000 206.019 C 301.917 206.871,300.608 207.133,298.200 207.587 C 296.880 207.835,294.990 208.198,294.000 208.392 C 293.010 208.587,290.670 208.957,288.800 209.214 C 286.930 209.471,284.467 209.853,283.326 210.064 L 281.253 210.446 280.162 213.225 C 279.562 214.754,279.186 216.120,279.326 216.260 C 279.467 216.400,279.705 216.174,279.856 215.757 C 281.072 212.409,282.013 210.816,282.871 210.654 C 283.382 210.558,286.410 210.078,289.600 209.589 C 317.190 205.355,340.254 198.300,349.364 191.308 C 353.087 188.450,353.800 187.198,353.800 183.517 L 353.800 180.309 352.077 178.779 C 350.435 177.323,348.598 176.563,342.400 174.780 C 341.410 174.495,338.839 173.468,336.688 172.499 C 331.482 170.153,326.285 169.472,320.732 170.409 " stroke="none" fill="#fcc4a9" fill-rule="evenodd"></path></g></svg>